<?xml version="1.0" standalone="no"?>
<!DOCTYPE svg PUBLIC "-//W3C//DTD SVG 20010904//EN"
 "http://www.w3.org/TR/2001/REC-SVG-20010904/DTD/svg10.dtd">
<svg version="1.0" xmlns="http://www.w3.org/2000/svg"
 width="1000.000000pt" height="1000.000000pt" viewBox="0 0 1000.000000 1000.000000"
 preserveAspectRatio="xMidYMid meet">
<metadata>
Created by potrace 1.16, written by Peter Selinger 2001-2019
</metadata>
<g transform="translate(0.000000,1000.000000) scale(0.100000,-0.100000)"
fill="#000000" stroke="none">
<path d="M2523 8448 c-17 -18 -162 -248 -322 -512 -245 -405 -289 -483 -284
-506 4 -24 -20 -68 -151 -277 -111 -177 -156 -257 -156 -278 0 -48 36 -167 85
-277 25 -56 45 -108 45 -114 0 -7 4 -14 8 -16 13 -5 82 -140 82 -161 0 -10 5
-15 10 -12 6 3 10 1 10 -5 0 -19 71 -89 94 -92 15 -2 22 -11 24 -32 2 -18 0
-26 -7 -21 -6 3 -11 1 -11 -4 0 -6 4 -11 9 -11 5 0 9 -19 8 -42 0 -24 -2 -35
-4 -25 -3 9 -9 14 -15 11 -6 -4 -14 0 -19 7 -6 10 -9 8 -9 -9 0 -12 3 -21 8
-20 19 4 42 -17 42 -39 0 -13 -4 -21 -10 -18 -5 3 -10 1 -10 -4 0 -6 5 -11 10
-11 18 0 11 -51 -11 -81 -22 -32 -19 -65 6 -55 18 7 20 -15 3 -32 -9 -9 -9
-12 0 -12 7 0 12 -5 12 -12 0 -8 -6 -6 -17 5 -16 16 -18 16 -29 -5 -9 -17 -8
-27 9 -55 17 -29 18 -41 10 -82 -8 -41 -7 -48 6 -47 19 1 28 -41 12 -57 -6 -6
-11 -19 -11 -28 0 -9 -7 -22 -15 -29 -12 -10 -15 -10 -15 4 0 9 -4 16 -10 16
-13 0 -13 -23 1 -37 5 -5 7 -21 4 -35 -5 -19 -11 -24 -26 -21 -18 5 -18 6 -2
18 15 11 15 15 4 29 -8 10 -21 14 -32 11 -23 -7 -79 24 -79 43 0 9 -6 12 -15
8 -35 -13 -125 80 -125 129 0 8 -4 17 -10 20 -10 6 -40 -56 -40 -85 0 -24 -38
-70 -57 -70 -9 0 -21 -7 -28 -16 -6 -9 -26 -17 -43 -18 -19 -1 -32 -6 -32 -14
0 -7 -4 -10 -10 -7 -5 3 -10 17 -10 31 0 22 -2 23 -20 14 -12 -6 -25 -22 -30
-36 -6 -14 -14 -22 -20 -19 -13 8 -13 35 0 35 6 0 9 19 6 45 -2 25 -1 45 2 45
2 0 15 -12 28 -27 13 -16 24 -23 24 -16 0 6 -4 15 -10 18 -5 3 -10 13 -10 20
0 11 8 13 33 9 31 -6 31 -6 12 9 -11 9 -27 17 -35 17 -9 0 -25 7 -37 15 -12 9
-24 11 -27 6 -4 -5 0 -12 6 -14 8 -3 4 -6 -7 -7 -11 -2 -30 -4 -42 -5 -14 -1
-23 3 -23 12 0 8 -5 11 -10 8 -6 -3 -14 4 -19 17 -6 13 -10 19 -11 13 0 -5 -4
-4 -9 4 -7 10 -11 5 -16 -18 -4 -17 -11 -29 -15 -26 -5 3 -7 12 -4 19 3 8 1
17 -5 21 -18 10 -12 25 9 25 22 0 25 7 10 30 -6 10 -10 11 -10 3 0 -7 -4 -13
-10 -13 -5 0 -10 18 -10 40 0 30 4 40 16 40 12 0 15 -7 10 -27 -3 -16 -3 -22
0 -15 3 6 14 12 24 12 20 0 35 51 18 61 -6 4 -7 16 -3 29 6 19 4 21 -17 15
-12 -4 -29 -14 -36 -23 -6 -9 -12 -12 -12 -6 0 5 -4 3 -9 -5 -5 -7 -14 -10
-20 -7 -17 11 -13 23 9 29 11 3 20 10 20 17 0 6 -5 8 -13 3 -12 -8 -18 -9 -38
-12 -8 -1 -10 -14 -6 -36 3 -19 2 -35 -3 -35 -5 0 -9 -25 -8 -55 1 -30 5 -55
10 -55 4 0 8 -8 9 -17 0 -11 3 -13 6 -5 10 25 33 12 33 -18 0 -32 -17 -41 -27
-14 -3 8 -12 13 -19 10 -8 -3 -14 -1 -14 4 0 6 -5 10 -11 10 -5 0 -7 -5 -3
-12 5 -7 0 -9 -14 -6 -15 4 -19 2 -15 -8 3 -8 1 -14 -3 -14 -5 0 -10 -24 -12
-52 -2 -29 -9 -59 -15 -67 -10 -12 -9 -14 7 -7 19 7 19 6 2 -13 -10 -11 -22
-18 -26 -16 -5 3 -10 -1 -13 -7 -6 -16 -43 4 -39 21 1 6 -7 11 -18 11 -26 0
-25 4 5 34 24 24 36 74 14 61 -6 -4 -8 -13 -5 -20 3 -9 -7 -18 -29 -25 -32
-11 -37 -9 -60 17 -13 15 -25 39 -25 54 0 14 -5 30 -12 37 -9 9 -9 12 0 12 7
0 12 7 12 15 0 8 5 15 10 15 15 0 12 36 -5 50 -8 6 -18 9 -23 6 -11 -7 -37 68
-28 83 4 6 2 20 -4 31 -8 16 -8 30 0 56 14 43 7 53 -20 29 -11 -10 -21 -14
-22 -9 0 5 -2 14 -3 19 -2 6 -3 16 -4 23 0 6 -10 12 -21 12 -11 0 -20 5 -20
11 0 5 5 7 10 4 6 -3 13 1 16 10 5 12 9 13 14 5 4 -7 7 11 6 39 0 28 2 51 7
51 4 0 7 -5 7 -12 0 -9 3 -9 11 -1 8 8 7 17 -2 34 -7 13 -14 34 -15 46 -2 13
-6 33 -10 45 l-7 23 -8 -23 c-11 -28 -39 -29 -39 -1 0 12 8 23 20 26 27 7 25
21 -10 88 -17 32 -31 68 -32 80 -2 16 -7 21 -21 17 -11 -3 -23 1 -27 9 -10 15
6 39 26 39 8 0 14 10 14 25 0 25 -14 33 -25 15 -3 -5 -15 -10 -26 -10 -10 0
-19 5 -19 10 0 24 -19 7 -34 -30 -18 -45 -13 -70 15 -70 12 0 16 -5 13 -15 -7
-18 -30 -20 -37 -2 -9 22 -26 -13 -67 -143 -100 -318 -169 -669 -200 -1030
-13 -148 -13 -622 0 -770 79 -912 401 -1760 944 -2485 222 -297 548 -634 839
-866 761 -609 1694 -978 2670 -1058 165 -14 629 -14 794 0 1473 121 2797 885
3635 2099 177 256 386 650 501 945 171 437 275 887 317 1365 10 123 13 581 3
607 -3 7 -13 13 -23 13 -13 0 -19 10 -22 35 -2 19 1 40 6 45 6 6 6 10 0 10 -5
0 -18 -16 -28 -35 -10 -19 -23 -32 -29 -28 -17 11 -67 9 -67 -2 0 -6 5 -16 12
-23 9 -9 9 -15 0 -24 -9 -9 -12 -7 -12 9 0 12 -5 23 -10 25 -13 4 10 56 27 60
8 2 9 8 4 16 -7 11 -13 10 -28 -8 -19 -19 -22 -20 -36 -6 -22 23 -29 20 -25
-11 2 -16 7 -26 12 -25 13 5 26 -21 20 -40 -3 -10 3 -21 16 -28 17 -9 19 -14
9 -26 -16 -19 -48 -18 -56 4 -9 23 -25 33 -45 26 -14 -4 -18 1 -18 22 0 22 -2
25 -15 14 -12 -10 -15 -9 -15 5 0 12 -6 16 -20 12 -11 -3 -27 1 -35 9 -8 9
-16 10 -20 4 -3 -5 -1 -10 5 -10 6 0 8 -5 5 -10 -4 -6 -11 -8 -16 -5 -5 4 -9
-1 -9 -10 0 -9 4 -14 9 -11 5 3 15 -1 22 -10 12 -14 14 -14 24 0 10 13 12 9
11 -19 -2 -32 -16 -64 -16 -35 0 12 -2 12 -12 1 -10 -11 -10 -14 0 -18 12 -5
17 -33 6 -33 -4 0 -13 8 -20 18 -12 15 -13 15 -14 1 0 -23 -22 -29 -49 -14
-15 8 -20 15 -12 19 16 10 14 26 -3 26 -9 0 -12 7 -9 19 5 20 -15 40 -26 25
-3 -5 -16 -15 -29 -22 -18 -10 -22 -10 -22 3 0 18 -55 75 -72 75 -7 0 -2 -7
10 -16 12 -8 22 -22 22 -30 0 -8 7 -14 15 -14 20 0 19 -16 -1 -24 -22 -8 -26
-8 -19 4 3 5 0 18 -7 29 -10 16 -15 18 -27 8 -12 -10 -14 -9 -8 5 5 14 1 16
-26 13 -81 -11 -82 -11 -85 13 -4 29 -22 29 -23 0 l0 -23 -11 22 c-16 33 -29
28 -21 -7 3 -18 1 -30 -5 -30 -18 0 -80 40 -86 56 -4 12 -10 10 -28 -8 l-23
-23 -3 23 c-2 12 -8 22 -13 22 -14 0 -11 -26 6 -40 20 -17 19 -27 -5 -33 -15
-4 -22 1 -27 21 -10 41 -30 75 -38 63 -3 -6 -4 -19 -1 -29 5 -14 0 -17 -28
-16 -19 1 -39 5 -44 8 -6 4 -8 -2 -5 -14 4 -15 0 -20 -13 -20 -11 0 -32 -7
-47 -15 -15 -8 -25 -10 -22 -5 9 14 -23 43 -49 45 -11 1 -26 12 -32 24 l-12
23 -17 -24 c-11 -15 -19 -19 -22 -10 -3 6 -13 12 -24 12 -20 0 -35 -39 -25
-65 9 -23 -6 -18 -42 15 -39 36 -42 36 -42 9 0 -15 -5 -19 -15 -15 -8 3 -18
-2 -23 -11 -11 -19 -36 -7 -28 14 4 10 0 14 -17 11 -15 -2 -21 -9 -19 -23 3
-20 3 -20 -13 0 -14 17 -17 18 -26 5 -8 -13 -11 -13 -23 3 -9 12 -16 14 -21 8
-3 -6 1 -18 9 -27 9 -8 16 -32 16 -52 -1 -33 -2 -35 -12 -17 -7 11 -12 27 -13
35 -4 35 -18 70 -27 70 -6 0 -7 -7 -4 -16 4 -10 -1 -25 -10 -35 -16 -18 -16
-19 1 -19 17 0 17 -1 0 -20 -18 -20 -18 -20 -32 7 -12 24 -11 28 9 50 l21 23
-21 0 c-13 0 -22 6 -22 15 0 8 -7 15 -17 15 -15 0 -15 -1 0 -18 24 -27 22 -55
-3 -47 -14 5 -20 2 -20 -10 0 -19 -23 -45 -39 -45 -17 0 -13 18 5 28 11 6 14
14 9 22 -6 10 -11 9 -21 -5 -18 -24 -32 -10 -16 16 9 14 10 25 3 37 -9 14 -10
14 -11 2 0 -9 -20 -26 -45 -40 -25 -14 -45 -29 -45 -35 0 -5 -4 -4 -9 4 -5 8
-7 20 -4 28 3 7 -1 13 -9 13 -20 0 -14 -58 8 -74 12 -9 14 -15 6 -20 -7 -4
-12 -11 -12 -17 0 -14 26 -11 40 6 10 12 10 18 0 30 -7 9 -10 18 -7 22 9 8 37
-17 37 -33 0 -8 5 -14 11 -14 5 0 7 -5 3 -11 -4 -8 -9 -7 -15 2 -4 7 -11 10
-15 7 -3 -4 3 -19 15 -34 20 -25 20 -44 1 -44 -6 0 -9 10 -7 23 2 18 -3 22
-28 24 -16 1 -22 -1 -12 -3 21 -7 22 -20 2 -28 -10 -3 -17 3 -21 19 -3 14 -11
25 -16 25 -6 0 -8 10 -5 21 3 13 -1 28 -9 36 -13 14 -17 13 -33 -1 -27 -24
-31 -19 -14 15 14 29 14 32 -1 41 -20 11 -21 38 -1 38 8 0 15 -7 15 -15 0 -8
5 -15 11 -15 8 0 6 7 -3 22 -13 19 -12 24 10 47 65 68 201 319 269 494 187
486 157 1060 -86 1595 -187 414 -468 724 -811 897 -204 103 -503 190 -740 215
-90 9 -3899 180 -4022 180 -37 0 -49 -6 -75 -32z m497 -58 c146 -6 420 -17
610 -25 190 -8 422 -17 515 -21 94 -3 174 -9 179 -12 5 -3 -40 -17 -100 -32
-128 -31 -282 -105 -318 -154 -35 -46 -96 -160 -96 -180 0 -9 11 -33 23 -54
70 -111 77 -130 71 -190 -4 -45 -2 -61 10 -71 8 -7 20 -10 26 -6 12 7 14 -37
3 -49 -5 -4 -8 -15 -9 -24 -1 -10 -2 -26 -3 -38 0 -13 -13 -25 -35 -34 -31
-12 -56 -44 -56 -72 0 -14 40 -58 52 -58 4 0 8 6 8 14 0 16 27 29 35 16 3 -4
-1 -15 -9 -23 -8 -8 -12 -17 -9 -20 3 -4 14 4 24 16 13 16 18 18 19 7 0 -8 -4
-22 -9 -29 -10 -16 3 -51 19 -51 11 0 3 116 -11 141 -13 25 -11 39 5 39 19 0
22 -12 36 -126 6 -54 16 -110 21 -123 6 -15 6 -28 -1 -36 -15 -18 -2 -44 26
-51 l24 -6 0 -592 0 -591 -48 -15 c-54 -17 -65 -41 -27 -58 23 -11 26 -22 15
-62 -1 -3 -6 6 -11 20 -8 19 -12 21 -18 11 -5 -7 -14 -10 -20 -7 -6 4 -11 2
-11 -3 0 -6 -7 -11 -15 -11 -8 0 -15 -5 -15 -11 0 -5 5 -7 10 -4 6 3 11 -2 11
-12 3 -41 5 -47 19 -51 13 -5 13 -3 1 11 -8 10 -9 17 -3 17 6 0 14 -5 17 -10
4 -6 11 -8 16 -5 5 4 9 -12 9 -34 0 -22 -5 -43 -10 -46 -6 -4 -8 -11 -5 -16 4
-5 2 -9 -2 -9 -11 0 -10 -38 1 -63 5 -9 5 -28 2 -42 -6 -24 1 -31 28 -26 5 1
1 -10 -8 -25 -10 -14 -16 -35 -13 -45 5 -18 -3 -19 -179 -19 -116 0 -184 4
-184 10 0 6 -7 10 -15 10 -8 0 -15 -4 -15 -10 0 -5 -13 -10 -28 -10 -22 0 -30
7 -39 31 -7 17 -16 28 -21 25 -5 -3 -18 6 -28 19 -10 14 -24 25 -30 25 -7 0
-28 16 -48 36 -20 20 -38 35 -39 33 -2 -2 -9 -16 -17 -31 -16 -33 -26 -35 -40
-8 -10 19 -11 19 -30 0 -23 -23 -40 -26 -40 -6 0 7 -8 16 -18 18 -16 4 -17 12
-12 54 4 34 1 56 -8 72 -18 27 -37 30 -22 2 8 -16 8 -20 -4 -20 -20 0 -30 18
-18 33 5 7 12 24 16 39 4 17 17 30 38 39 29 11 30 13 11 16 -30 6 -82 -23 -93
-52 -11 -28 -30 -34 -30 -9 0 9 11 25 25 35 27 22 24 54 -5 46 -10 -2 -24 0
-31 5 -11 8 -11 9 1 5 10 -3 16 2 16 14 0 11 -4 19 -8 19 -4 0 -8 -4 -8 -8 0
-4 -9 -8 -20 -9 -20 -2 -20 4 -20 346 l0 347 -61 32 c-33 18 -74 32 -90 32
-16 0 -29 5 -29 10 0 6 -4 10 -10 10 -5 0 -10 -7 -10 -15 0 -23 -38 -18 -54 8
-8 12 -17 58 -21 102 l-7 80 144 120 143 119 -130 23 c-72 12 -131 22 -133 22
-1 1 -36 70 -78 154 l-75 152 -117 38 c-64 21 -164 61 -222 89 l-105 51 80 14
c139 25 237 83 301 181 20 31 39 59 41 61 6 8 62 8 57 0 -6 -10 22 -25 64 -34
30 -6 32 -5 32 19 0 32 3 32 36 -1 18 -18 29 -23 32 -15 5 17 22 15 22 -3 0
-8 5 -15 11 -15 7 0 8 14 4 40 -6 36 -5 40 14 40 28 0 60 -34 68 -70 3 -17 9
-30 13 -30 16 0 42 140 47 245 l4 110 -78 53 c-43 28 -79 48 -81 42 -5 -15
-28 -12 -43 6 -10 12 -10 17 -1 23 8 4 -26 33 -88 76 -56 38 -103 72 -105 75
-3 4 26 6 63 4 37 -2 186 -9 332 -14z m1695 -70 c121 -5 333 -14 470 -20 822
-33 1334 -57 1430 -66 447 -41 796 -188 1076 -452 61 -57 67 -66 63 -95 -7
-47 -13 -59 -24 -52 -6 3 -7 -1 -4 -9 3 -9 11 -13 18 -9 6 4 4 -1 -3 -11 -14
-16 -16 -16 -27 -2 -10 15 -12 13 -16 -9 -4 -17 0 -29 11 -35 13 -8 14 -11 2
-19 -11 -7 -4 -21 36 -68 174 -200 336 -546 393 -834 59 -303 37 -617 -63
-876 -46 -119 -144 -313 -162 -319 -22 -9 -110 44 -145 87 -17 22 -35 39 -40
39 -5 0 -29 14 -53 30 -25 17 -47 30 -51 30 -3 0 -50 46 -106 102 -92 93 -100
104 -100 140 0 21 -3 38 -7 38 -5 0 -18 3 -30 6 -17 5 -23 2 -23 -10 0 -9 -7
-16 -17 -16 -9 0 -35 -11 -59 -25 -47 -27 -50 -26 -70 31 -6 18 -7 40 -2 53 6
18 4 21 -10 19 -11 -2 -18 5 -20 20 -3 17 -8 22 -19 18 -9 -4 -22 -1 -29 5
-11 9 -14 7 -16 -7 0 -11 -2 -24 -2 -31 -2 -20 -15 -27 -21 -10 -9 23 11 308
24 337 9 21 10 15 8 -37 -1 -34 2 -65 6 -69 11 -11 130 -54 135 -49 2 2 7 62
9 132 6 145 -9 253 -53 393 -40 125 -47 361 -10 331 15 -13 26 -4 26 20 0 26
-56 65 -250 174 -280 158 -351 194 -425 219 -76 26 -196 51 -285 60 -51 6
-880 36 -981 36 l-47 0 4 89 c3 83 2 90 -22 112 -21 19 -22 24 -9 29 14 5 14
8 0 25 -14 19 -17 18 -72 -42 -39 -42 -65 -61 -78 -59 -101 13 -142 20 -155
27 -10 5 -24 -1 -42 -19 -33 -30 -36 -20 -8 23 22 33 26 86 9 133 -7 21 -7 37
0 49 11 22 -5 103 -21 103 -5 0 -6 9 -3 20 4 11 0 33 -8 49 -16 32 -7 58 14
46 8 -5 5 1 -5 13 -11 12 -25 22 -33 22 -8 0 -12 4 -9 9 3 4 -5 17 -17 28 -40
36 -210 121 -277 138 -112 29 -115 29 195 15z m-65 -1854 c98 -18 160 -48 229
-112 117 -109 191 -297 174 -446 -5 -45 -5 -46 -25 -26 -19 19 -20 19 -33 1
-17 -22 -19 -43 -5 -43 6 0 10 7 8 16 -5 28 21 27 32 -1 8 -21 5 -37 -14 -78
-48 -104 -24 -97 -341 -97 -153 0 -276 2 -274 5 3 2 30 5 60 6 30 1 57 7 62
13 5 8 9 8 15 0 4 -6 26 -11 49 -13 l42 -2 -5 46 c-2 25 1 55 7 66 12 23 3 41
-10 20 -5 -7 -14 -12 -21 -9 -9 3 -8 9 4 21 19 18 17 21 -8 11 -9 -3 -16 -12
-16 -20 0 -16 -30 -54 -43 -54 -5 0 -1 7 7 16 20 19 21 48 2 41 -8 -3 -22 3
-31 13 -10 11 -21 17 -26 15 -4 -3 -17 7 -29 22 -19 25 -23 26 -31 10 -12 -21
-39 -23 -39 -2 0 7 8 18 17 24 17 9 17 10 0 28 -15 18 -17 47 -17 281 l0 262
93 0 c50 -1 126 -7 167 -14z m2188 -661 c42 -74 46 -93 11 -56 -15 16 -24 20
-32 12 -7 -7 -6 -16 6 -29 9 -10 17 -26 17 -35 0 -23 39 -43 54 -27 8 9 8 14
-1 17 -7 3 -13 12 -13 20 0 23 25 0 51 -47 12 -21 27 -37 33 -35 6 2 26 6 44
9 19 2 42 12 53 22 10 9 19 13 19 9 0 -4 -18 -23 -39 -42 -22 -18 -43 -42 -46
-53 -6 -20 -35 -28 -35 -10 0 35 -90 -48 -94 -87 -3 -25 -8 -28 -42 -31 -21
-1 -91 -14 -154 -27 -63 -14 -133 -27 -155 -30 -22 -3 -74 -9 -115 -15 -117
-14 -170 -13 -177 6 -10 26 25 39 93 35 45 -2 65 1 77 13 8 9 23 13 31 10 19
-7 20 0 6 26 -6 11 -17 17 -24 14 -9 -3 -21 5 -31 19 -11 18 -22 24 -38 20
-21 -4 -21 -4 -3 11 19 15 19 16 1 36 -10 11 -24 20 -32 20 -7 0 -13 6 -13 13
0 7 26 21 58 31 92 29 207 95 288 163 l74 64 29 -20 c35 -25 41 -26 41 -6 0 9
-10 20 -22 25 -13 5 -17 9 -11 9 9 1 11 11 7 34 l-6 32 25 -25 c14 -14 44 -56
65 -95z m-1201 -250 c9 -19 20 -35 24 -35 8 0 59 -124 59 -145 0 -12 -20 -15
-114 -15 -71 0 -117 4 -121 11 -4 6 -14 8 -22 5 -9 -4 -21 -2 -28 4 -9 8 -14
6 -19 -5 -7 -18 -53 -20 -58 -3 -3 7 0 25 6 40 7 20 17 28 35 28 25 0 83 -16
113 -31 9 -5 36 -12 58 -15 33 -5 43 -3 54 12 12 15 11 22 -1 41 -9 13 -18 22
-20 19 -3 -3 -16 -1 -29 4 -16 7 -24 6 -24 -1 0 -8 -5 -7 -15 1 -8 6 -13 22
-12 33 1 16 -3 21 -15 19 -10 -2 -18 3 -18 11 0 8 -7 20 -15 27 -28 24 -15 30
65 30 l80 0 17 -35z m-4487 -171 c0 -8 4 -13 9 -9 5 3 12 1 15 -4 3 -5 15 -7
26 -4 20 5 28 -11 11 -21 -5 -3 -7 -23 -4 -44 8 -60 -41 -142 -86 -142 -14 0
-41 29 -41 46 0 8 7 14 15 14 8 0 15 4 15 8 0 5 15 7 33 4 29 -4 30 -3 14 10
-11 8 -17 22 -15 32 5 29 -16 29 -47 0 -20 -19 -25 -28 -16 -34 9 -5 6 -9 -9
-13 -16 -4 -20 -2 -16 9 3 8 -1 14 -9 14 -8 0 -15 9 -15 19 0 11 -5 21 -10 23
-13 4 12 58 37 80 32 28 93 36 93 12z m342 -107 c15 -5 15 -10 -6 -49 -13 -25
-35 -50 -55 -60 -18 -9 -40 -23 -49 -31 -14 -11 -72 -30 -72 -22 0 1 7 24 16
51 17 49 55 94 81 94 8 0 11 5 7 12 -5 7 -2 9 9 5 8 -3 21 1 28 9 7 8 15 11
18 6 3 -5 14 -11 23 -15z m4321 -260 c6 -9 10 -9 14 1 3 8 35 12 109 12 68 0
103 -4 99 -10 -3 -5 1 -10 9 -10 9 0 16 5 16 10 0 16 390 12 391 -3 0 -9 2 -8
6 1 3 7 24 12 53 12 44 0 48 -2 43 -21 -4 -16 -11 -19 -32 -14 -14 3 -51 6
-81 6 -30 1 -59 7 -63 13 -6 8 -10 8 -14 -1 -2 -7 -13 -13 -24 -13 -10 0 -19
6 -20 13 0 10 -2 10 -6 0 -2 -7 -18 -13 -34 -13 -16 0 -29 6 -30 13 0 10 -2
10 -6 0 -6 -16 -47 -17 -75 -2 -14 7 -18 7 -14 0 9 -14 -353 -14 -371 1 -9 7
-13 7 -13 -1 0 -15 -102 -12 -113 3 -6 8 -10 7 -14 -1 -7 -18 -43 -16 -43 2 0
12 18 15 102 14 66 0 106 -5 111 -12z m1212 -106 c6 0 24 -28 40 -62 32 -69
49 -63 41 15 -3 25 -3 46 -2 46 2 0 24 -20 49 -45 38 -37 87 -109 87 -129 0
-9 -31 1 -43 14 -10 10 -9 11 2 5 10 -6 11 -2 6 16 -10 32 -10 32 -34 24 -23
-7 -29 -43 -10 -62 13 -13 -2 -17 -171 -38 -144 -19 -119 -30 -206 97 -29 41
-59 75 -68 75 -21 0 -20 -6 9 -73 15 -33 19 -52 11 -45 -8 6 -20 10 -27 9 -8
-2 -13 3 -11 11 2 8 -3 18 -10 22 -19 13 -28 11 -28 -6 0 -8 -4 -15 -10 -15
-5 0 -10 -9 -10 -21 0 -12 -8 -23 -20 -26 -15 -4 -17 -9 -10 -23 6 -10 10 -46
11 -79 1 -44 5 -61 15 -61 21 0 36 -37 25 -59 -13 -23 -5 -31 32 -31 29 0 29
1 14 18 -22 24 -21 32 1 32 23 0 62 -33 97 -79 29 -40 35 -101 10 -101 -11 0
-14 -7 -9 -25 4 -16 2 -25 -5 -25 -16 0 -41 -62 -41 -100 0 -45 -18 -36 -44
23 -13 30 -43 73 -67 95 -32 32 -38 42 -25 42 16 0 17 2 5 17 -8 9 -13 24 -11
35 4 23 -14 24 -27 1 -5 -10 -12 -15 -16 -11 -4 3 1 19 10 35 15 24 13 23 -14
-7 -40 -46 -39 -32 5 46 44 78 39 85 -7 9 -50 -83 -53 -66 -4 26 24 44 38 78
32 76 -11 -3 -87 87 -87 104 0 9 -80 17 -86 8 -2 -4 7 -29 21 -55 34 -64 49
-119 40 -141 -4 -10 -7 -30 -6 -45 2 -26 -6 -33 -32 -29 -4 1 -13 -10 -19 -24
-8 -19 -18 -25 -37 -23 -38 4 -59 38 -23 38 16 1 16 1 -1 11 -9 6 -15 14 -12
20 4 5 0 9 -8 9 -10 0 -13 -10 -10 -41 3 -27 1 -39 -6 -34 -7 3 -11 -3 -12
-17 -1 -23 -1 -23 -8 2 -4 14 -3 33 3 42 7 12 7 24 -1 40 -7 13 -15 34 -18 46
l-7 24 -22 -21 c-12 -12 -25 -19 -28 -15 -3 3 -9 0 -14 -7 -4 -8 -3 -10 4 -5
7 4 14 -3 18 -18 7 -30 -23 -97 -67 -147 -30 -36 -30 -38 -14 -63 19 -29 10
-34 -23 -10 -26 18 -28 9 -7 -33 8 -16 17 -45 20 -64 4 -27 4 -30 -5 -14 -5
11 -14 32 -20 48 -5 15 -14 27 -20 27 -8 0 41 -154 53 -166 1 -1 14 -4 27 -6
41 -7 118 -46 150 -78 23 -22 26 -30 14 -30 -13 0 -15 -6 -10 -32 4 -18 8 -44
9 -57 1 -15 17 -35 44 -55 58 -43 63 -62 7 -30 -25 14 -47 25 -49 22 -2 -2 6
-27 19 -54 13 -28 31 -88 40 -133 16 -77 33 -121 47 -121 12 0 36 36 43 63 3
15 12 27 20 27 7 0 18 12 25 27 10 22 14 24 22 12 8 -12 12 -11 25 6 13 18 13
21 -3 32 -9 7 -12 13 -7 13 15 0 50 -41 58 -66 9 -29 -34 -138 -104 -264 -7
-14 -15 -36 -16 -49 -2 -13 -5 -25 -7 -28 -3 -2 -28 26 -56 62 -43 54 -50 69
-41 84 15 30 12 74 -10 122 -15 34 -20 39 -20 20 0 -16 -4 -21 -15 -17 -10 4
-17 -3 -21 -22 -3 -15 -6 -30 -7 -33 -1 -4 -135 164 -297 372 -370 476 -336
430 -313 424 17 -6 17 -5 -1 7 -60 42 -68 51 -63 75 2 13 1 26 -3 28 -4 3 -11
58 -15 122 -4 65 -12 126 -17 136 -9 17 -7 17 12 7 15 -8 20 -8 16 -1 -14 22
10 9 54 -29 41 -36 45 -38 48 -20 2 12 -9 38 -25 58 -70 93 -103 152 -109 196
-4 25 -11 46 -15 46 -5 0 -9 -6 -9 -12 0 -9 -3 -9 -9 1 -16 24 -24 -50 -10
-84 13 -33 20 -112 8 -93 -5 8 -12 2 -19 -17 -5 -17 -15 -39 -20 -50 -9 -16
-9 -15 -5 10 3 17 8 37 11 46 3 10 -9 28 -31 47 -28 25 -35 39 -35 68 0 36 0
36 36 30 35 -7 36 -7 34 26 -5 83 -12 78 105 78 102 0 111 -3 106 -32 0 -4 6
-5 14 -2 8 4 15 10 15 15 0 18 18 9 23 -12 3 -11 11 -19 19 -18 48 6 108 -44
108 -91 0 -14 7 -49 15 -79 14 -52 30 -75 47 -65 4 3 8 0 8 -6 0 -6 5 -8 10
-5 16 10 12 35 -5 29 -19 -8 -20 22 -1 33 18 10 10 64 -9 57 -20 -8 -28 15
-11 32 14 14 19 14 45 1 16 -8 34 -11 40 -8 21 13 96 2 158 -23 72 -30 138
-34 147 -10 3 9 4 20 0 25 -3 5 2 9 10 9 20 0 20 14 1 30 -9 7 -13 15 -10 18
3 3 0 11 -6 19 -7 7 -14 29 -16 48 -3 33 -3 34 39 37 40 3 581 2 603 -1z
m-3785 -11 c0 -5 5 -10 11 -10 5 0 7 5 4 10 -4 7 127 10 384 10 276 0 391 -3
391 -11 0 -7 17 -9 51 -4 37 5 50 4 45 -4 -4 -6 2 -26 13 -45 15 -23 19 -42
15 -63 -4 -23 1 -41 20 -72 l26 -41 -34 0 c-30 0 -39 -6 -66 -45 l-31 -45
-103 0 -104 0 8 -34 c16 -73 -82 -165 -160 -150 -16 4 -30 11 -30 17 0 6 -6 3
-13 -8 -10 -13 -16 -15 -21 -6 -4 6 -2 18 4 26 10 12 9 15 -4 15 -10 0 -15 4
-12 9 3 5 -1 11 -9 15 -19 7 -19 56 0 82 8 10 15 22 15 27 0 4 -79 7 -175 7
l-175 0 -21 -42 c-27 -53 -69 -91 -134 -123 -61 -30 -85 -32 -85 -6 0 11 -9
23 -20 26 -11 3 -20 11 -20 16 0 5 9 9 20 9 18 0 20 7 20 63 l0 63 -77 70
c-43 39 -111 99 -152 135 -41 35 -88 76 -105 91 l-31 27 278 1 c178 0 277 -4
277 -10z m1482 -60 c6 0 8 14 4 35 l-7 35 56 0 c56 0 67 -8 40 -30 -40 -33
-50 -92 -29 -162 3 -11 0 -18 -8 -18 -8 -1 -6 -6 6 -15 18 -14 14 -15 -42 -15
-54 0 -62 2 -62 19 0 10 14 35 30 56 17 21 30 41 30 45 0 4 -20 30 -45 58 -25
27 -45 54 -45 58 1 5 14 -8 31 -28 17 -21 36 -38 41 -38z m588 -95 c0 -8 26
-28 58 -44 31 -16 80 -51 107 -78 28 -26 56 -46 64 -45 7 2 11 -2 9 -10 -3 -7
8 -28 23 -46 23 -25 29 -43 29 -77 0 -25 -2 -45 -4 -45 -2 0 -36 42 -77 94
-58 75 -81 98 -115 111 -44 17 -144 113 -144 139 0 8 8 16 18 19 22 5 32 -1
32 -18z m1730 -435 c0 -5 4 -10 9 -10 14 0 102 -125 115 -163 16 -46 119 -251
130 -259 12 -8 -1 -192 -14 -196 -23 -8 -8 -57 35 -112 38 -50 43 -60 30 -70
-11 -9 -14 -23 -9 -49 l7 -36 -31 33 c-17 19 -36 31 -41 28 -5 -3 -14 1 -21 9
-9 10 -9 15 -1 15 6 0 11 -6 11 -12 0 -21 20 14 20 35 0 10 -4 15 -10 12 -6
-4 -10 5 -10 20 0 22 -3 25 -26 19 -18 -5 -25 -3 -20 4 4 7 -2 10 -14 9 -13
-1 -20 -8 -20 -22 -1 -20 -1 -20 -12 0 -16 30 -18 31 -29 15 -7 -11 -8 -6 -4
18 4 17 5 32 3 32 -2 0 -18 -4 -36 -9 -17 -5 -32 -6 -32 -2 0 5 -20 11 -45 14
-52 5 -52 5 -57 32 -1 11 -7 23 -12 26 -18 14 38 31 85 27 31 -3 46 -1 42 5
-6 10 13 7 51 -8 16 -7 17 -5 8 11 -5 10 -10 24 -10 29 1 6 -9 15 -20 21 -44
22 -72 63 -72 105 0 21 4 39 9 39 15 0 20 -27 8 -39 -8 -8 -8 -11 0 -11 19 0
35 55 27 96 -10 58 -47 135 -83 176 -29 33 -44 77 -21 63 14 -9 12 6 -3 24 -8
9 -20 38 -27 64 -14 51 -7 66 29 67 11 0 10 5 -2 24 -9 13 -13 26 -10 29 6 7
73 -87 73 -103z m-5784 -243 c24 -32 32 -53 33 -90 2 -74 -40 -135 -66 -94 -4
6 -17 17 -28 23 -11 6 -30 36 -43 68 -19 48 -21 62 -12 97 12 43 43 64 70 47
8 -6 29 -29 46 -51z m2799 -564 c-6 -48 -25 -285 -25 -319 0 -14 -4 -23 -9
-20 -5 3 -12 -38 -15 -92 -6 -72 -12 -103 -26 -119 -23 -29 -26 -29 -44 5 -12
23 -12 33 0 67 7 22 11 54 8 72 -5 26 -1 37 19 55 25 23 26 28 29 179 2 128 6
160 21 182 27 41 48 36 42 -10z m-55 -659 c-11 -53 -22 -100 -25 -103 -2 -4
-5 -38 -6 -76 -2 -55 1 -70 12 -70 15 0 15 -14 -1 -175 -5 -52 -12 -129 -15
-172 -4 -44 -13 -84 -21 -95 -14 -16 -15 -8 -8 77 4 52 8 186 9 298 2 133 7
207 14 216 6 7 14 51 17 97 4 51 13 94 22 109 26 40 26 5 2 -106z m3475 -274
c-3 -4 2 -13 10 -20 18 -15 20 -40 3 -40 -6 0 -2 -11 10 -23 29 -31 45 -86 31
-104 -6 -7 -16 -10 -23 -6 -6 3 -6 0 2 -8 14 -16 16 -49 2 -49 -5 0 -10 4 -10
9 0 5 -9 13 -20 16 -11 3 -20 13 -20 22 0 9 -13 37 -30 64 -16 27 -25 51 -20
54 6 3 10 1 10 -5 0 -6 5 -8 11 -4 7 4 7 9 2 13 -16 11 -24 41 -9 35 18 -7 30
41 16 66 -17 31 -11 35 15 10 13 -12 22 -26 20 -30z"/>
<path d="M816 6731 c-17 -19 -14 -47 4 -36 4 3 6 -4 3 -15 -4 -14 4 -28 26
-47 36 -32 39 -48 12 -63 -25 -13 -41 -13 -21 0 13 9 13 12 -2 24 -10 7 -15
16 -11 19 3 4 1 7 -5 7 -21 0 -24 -21 -4 -27 18 -4 19 -7 5 -33 -14 -29 -43
-32 -43 -4 0 8 -7 14 -15 14 -17 0 -20 -26 -4 -35 6 -4 9 -22 7 -41 -1 -18 3
-39 10 -46 6 -6 12 -17 12 -24 0 -6 7 -14 15 -18 9 -3 15 -18 15 -35 0 -25 -3
-29 -17 -24 -14 4 -13 1 5 -16 20 -20 27 -21 56 -11 18 6 40 8 48 5 12 -5 16
0 16 22 -1 53 -7 73 -23 67 -8 -4 -15 -2 -15 4 0 13 33 9 37 -5 2 -5 17 -8 33
-5 29 4 30 4 26 -38 -2 -23 -9 -46 -16 -50 -8 -5 -7 -9 4 -13 11 -5 16 -1 16
13 0 10 5 22 10 25 6 4 9 14 6 23 -2 10 -8 32 -11 51 -7 31 -5 33 14 28 14 -3
21 0 21 9 0 8 -6 14 -14 14 -8 0 -22 7 -30 16 -9 8 -16 11 -16 5 0 -6 -4 -11
-10 -11 -5 0 -10 7 -10 15 0 8 -7 15 -16 15 -8 0 -12 5 -9 10 3 6 24 10 46 10
43 0 49 9 19 28 -12 7 -18 16 -16 21 7 10 -58 81 -74 81 -7 0 -9 8 -5 21 6 18
5 19 -14 7 -18 -11 -23 -11 -32 2 -5 8 -8 25 -6 38 5 27 -4 28 -27 3z"/>
</g>
</svg>
